<?xml version="1.0" encoding="UTF-8" standalone="no"?>
<!DOCTYPE svg PUBLIC "-//W3C//DTD SVG 1.1//EN"
 "http://www.w3.org/Graphics/SVG/1.1/DTD/svg11.dtd">
<!-- Generated by graphviz version 2.38.0 (20140413.2041)
 -->
<!-- Title: G Pages: 1 -->
<svg width="485pt" height="1992pt"
 viewBox="0.00 0.00 485.00 1992.00" xmlns="http://www.w3.org/2000/svg" xmlns:xlink="http://www.w3.org/1999/xlink">
<g id="graph0" class="graph" transform="scale(1 1) rotate(0) translate(4 1988)">
<title>G</title>
<polygon fill="white" stroke="none" points="-4,4 -4,-1988 481,-1988 481,4 -4,4"/>
<g id="clust1" class="cluster"><title>cluster_Global</title>
<path fill="none" stroke="gray" d="M20,-8C20,-8 457,-8 457,-8 463,-8 469,-14 469,-20 469,-20 469,-1964 469,-1964 469,-1970 463,-1976 457,-1976 457,-1976 20,-1976 20,-1976 14,-1976 8,-1970 8,-1964 8,-1964 8,-20 8,-20 8,-14 14,-8 20,-8"/>
<text text-anchor="middle" x="238.5" y="-1963.2" font-family="Times New Roman,serif" font-size="11.00" fill="gray">Global</text>
</g>
<g id="clust2" class="cluster"><title>cluster_\Roulette</title>
<path fill="none" stroke="gray" d="M28,-16C28,-16 449,-16 449,-16 455,-16 461,-22 461,-28 461,-28 461,-1936 461,-1936 461,-1942 455,-1948 449,-1948 449,-1948 28,-1948 28,-1948 22,-1948 16,-1942 16,-1936 16,-1936 16,-28 16,-28 16,-22 22,-16 28,-16"/>
<text text-anchor="middle" x="238.5" y="-1935.2" font-family="Times New Roman,serif" font-size="11.00" fill="gray">Roulette</text>
</g>
<g id="clust3" class="cluster"><title>cluster_\Roulette\validation</title>
<path fill="none" stroke="gray" d="M166.5,-904C166.5,-904 438.5,-904 438.5,-904 444.5,-904 450.5,-910 450.5,-916 450.5,-916 450.5,-1908 450.5,-1908 450.5,-1914 444.5,-1920 438.5,-1920 438.5,-1920 166.5,-1920 166.5,-1920 160.5,-1920 154.5,-1914 154.5,-1908 154.5,-1908 154.5,-916 154.5,-916 154.5,-910 160.5,-904 166.5,-904"/>
<text text-anchor="middle" x="302.5" y="-1907.2" font-family="Times New Roman,serif" font-size="11.00" fill="gray">validation</text>
</g>
<g id="clust4" class="cluster"><title>cluster_\Roulette\validation\validator</title>
<path fill="none" stroke="gray" d="M174.5,-912C174.5,-912 430.5,-912 430.5,-912 436.5,-912 442.5,-918 442.5,-924 442.5,-924 442.5,-1836 442.5,-1836 442.5,-1842 436.5,-1848 430.5,-1848 430.5,-1848 174.5,-1848 174.5,-1848 168.5,-1848 162.5,-1842 162.5,-1836 162.5,-1836 162.5,-924 162.5,-924 162.5,-918 168.5,-912 174.5,-912"/>
<text text-anchor="middle" x="302.5" y="-1835.2" font-family="Times New Roman,serif" font-size="11.00" fill="gray">validator</text>
</g>
<g id="clust6" class="cluster"><title>cluster_\Roulette\field</title>
<path fill="none" stroke="gray" d="M189.5,-770C189.5,-770 235.5,-770 235.5,-770 241.5,-770 247.5,-776 247.5,-782 247.5,-782 247.5,-884 247.5,-884 247.5,-890 241.5,-896 235.5,-896 235.5,-896 189.5,-896 189.5,-896 183.5,-896 177.5,-890 177.5,-884 177.5,-884 177.5,-782 177.5,-782 177.5,-776 183.5,-770 189.5,-770"/>
<text text-anchor="middle" x="212.5" y="-883.2" font-family="Times New Roman,serif" font-size="11.00" fill="gray">field</text>
</g>
<g id="clust5" class="cluster"><title>cluster_\Roulette\association</title>
<path fill="none" stroke="gray" d="M171,-636C171,-636 254,-636 254,-636 260,-636 266,-642 266,-648 266,-648 266,-750 266,-750 266,-756 260,-762 254,-762 254,-762 171,-762 171,-762 165,-762 159,-756 159,-750 159,-750 159,-648 159,-648 159,-642 165,-636 171,-636"/>
<text text-anchor="middle" x="212.5" y="-749.2" font-family="Times New Roman,serif" font-size="11.00" fill="gray">association</text>
</g>
<g id="clust7" class="cluster"><title>cluster_\Roulette\tunnel</title>
<path fill="none" stroke="gray" d="M174.5,-502C174.5,-502 250.5,-502 250.5,-502 256.5,-502 262.5,-508 262.5,-514 262.5,-514 262.5,-616 262.5,-616 262.5,-622 256.5,-628 250.5,-628 250.5,-628 174.5,-628 174.5,-628 168.5,-628 162.5,-622 162.5,-616 162.5,-616 162.5,-514 162.5,-514 162.5,-508 168.5,-502 174.5,-502"/>
<text text-anchor="middle" x="212.5" y="-615.2" font-family="Times New Roman,serif" font-size="11.00" fill="gray">tunnel</text>
</g>
<g id="clust8" class="cluster"><title>cluster_\Roulette\util</title>
<path fill="none" stroke="gray" d="M351,-397C351,-397 441,-397 441,-397 447,-397 453,-403 453,-409 453,-409 453,-511 453,-511 453,-517 447,-523 441,-523 441,-523 351,-523 351,-523 345,-523 339,-517 339,-511 339,-511 339,-409 339,-409 339,-403 345,-397 351,-397"/>
<text text-anchor="middle" x="396" y="-510.2" font-family="Times New Roman,serif" font-size="11.00" fill="gray">util</text>
</g>
<!-- \\Roulette\\validation\\validator\\Numeric -->
<g id="node1" class="node"><title>\\Roulette\\validation\\validator\\Numeric</title>
<polygon fill="none" stroke="black" points="428,-1820 364,-1820 364,-1784 428,-1784 428,-1820"/>
<text text-anchor="middle" x="396" y="-1799.2" font-family="Courier,monospace" font-size="11.00">Numeric</text>
</g>
<!-- \\Roulette\\validation\\validator\\Validator -->
<g id="node9" class="node"><title>\\Roulette\\validation\\validator\\Validator</title>
<polygon fill="none" stroke="black" points="254.5,-1361 170.5,-1361 170.5,-1325 254.5,-1325 254.5,-1361"/>
<text text-anchor="start" x="178.5" y="-1346.2" font-family="Courier,monospace" font-size="11.00">«abstract»</text>
<text text-anchor="start" x="182" y="-1334.2" font-family="Courier,monospace" font-size="11.00">Validator</text>
</g>
<!-- \\Roulette\\validation\\validator\\Numeric&#45;&gt;\\Roulette\\validation\\validator\\Validator -->
<g id="edge1" class="edge"><title>\\Roulette\\validation\\validator\\Numeric&#45;&gt;\\Roulette\\validation\\validator\\Validator</title>
<path fill="none" stroke="black" d="M363.953,-1793.3C354.591,-1789.2 345.173,-1783.32 339,-1775 229.128,-1626.87 392.546,-1507.12 275,-1365 271.867,-1361.21 268.033,-1358.08 263.823,-1355.48"/>
<polygon fill="none" stroke="black" points="265.262,-1352.29 254.762,-1350.87 262.09,-1358.53 265.262,-1352.29"/>
</g>
<!-- \\Roulette\\validation\\validator\\Double -->
<g id="node2" class="node"><title>\\Roulette\\validation\\validator\\Double</title>
<polygon fill="none" stroke="black" points="424.5,-1766 367.5,-1766 367.5,-1730 424.5,-1730 424.5,-1766"/>
<text text-anchor="middle" x="396" y="-1745.2" font-family="Courier,monospace" font-size="11.00">Double</text>
</g>
<!-- \\Roulette\\validation\\validator\\Double&#45;&gt;\\Roulette\\validation\\validator\\Validator -->
<g id="edge2" class="edge"><title>\\Roulette\\validation\\validator\\Double&#45;&gt;\\Roulette\\validation\\validator\\Validator</title>
<path fill="none" stroke="black" d="M367.271,-1740.55C356.916,-1736.42 345.986,-1730.2 339,-1721 241.749,-1592.99 378.879,-1487.69 275,-1365 271.824,-1361.25 267.96,-1358.14 263.733,-1355.56"/>
<polygon fill="none" stroke="black" points="265.154,-1352.35 254.649,-1350.97 261.998,-1358.6 265.154,-1352.35"/>
</g>
<!-- \\Roulette\\validation\\validator\\Format -->
<g id="node3" class="node"><title>\\Roulette\\validation\\validator\\Format</title>
<polygon fill="none" stroke="black" points="424.5,-1712 367.5,-1712 367.5,-1676 424.5,-1676 424.5,-1712"/>
<text text-anchor="middle" x="396" y="-1691.2" font-family="Courier,monospace" font-size="11.00">Format</text>
</g>
<!-- \\Roulette\\validation\\validator\\Format&#45;&gt;\\Roulette\\validation\\validator\\Validator -->
<g id="edge6" class="edge"><title>\\Roulette\\validation\\validator\\Format&#45;&gt;\\Roulette\\validation\\validator\\Validator</title>
<path fill="none" stroke="black" d="M367.415,-1686.44C357.08,-1682.29 346.128,-1676.09 339,-1667 254.318,-1559.05 365.268,-1468.33 275,-1365 271.766,-1361.3 267.865,-1358.22 263.614,-1355.66"/>
<polygon fill="none" stroke="black" points="265.009,-1352.44 254.501,-1351.1 261.876,-1358.7 265.009,-1352.44"/>
</g>
<!-- \\Roulette\\validation\\validator\\Nullable -->
<g id="node4" class="node"><title>\\Roulette\\validation\\validator\\Nullable</title>
<polygon fill="none" stroke="black" points="431.5,-1658 360.5,-1658 360.5,-1622 431.5,-1622 431.5,-1658"/>
<text text-anchor="middle" x="396" y="-1637.2" font-family="Courier,monospace" font-size="11.00">Nullable</text>
</g>
<!-- \\Roulette\\validation\\validator\\Nullable&#45;&gt;\\Roulette\\validation\\validator\\Validator -->
<g id="edge7" class="edge"><title>\\Roulette\\validation\\validator\\Nullable&#45;&gt;\\Roulette\\validation\\validator\\Validator</title>
<path fill="none" stroke="black" d="M360.336,-1629.02C352.376,-1625.07 344.613,-1619.84 339,-1613 266.801,-1524.99 351.749,-1449.07 275,-1365 271.732,-1361.42 267.84,-1358.42 263.624,-1355.91"/>
<polygon fill="none" stroke="black" points="265.121,-1352.75 254.611,-1351.41 261.995,-1359.01 265.121,-1352.75"/>
</g>
<!-- \\Roulette\\validation\\validator\\Above -->
<g id="node5" class="node"><title>\\Roulette\\validation\\validator\\Above</title>
<polygon fill="none" stroke="black" points="423,-1604 369,-1604 369,-1568 423,-1568 423,-1604"/>
<text text-anchor="middle" x="396" y="-1583.2" font-family="Courier,monospace" font-size="11.00">Above</text>
</g>
<!-- \\Roulette\\validation\\validator\\Above&#45;&gt;\\Roulette\\validation\\validator\\Validator -->
<g id="edge9" class="edge"><title>\\Roulette\\validation\\validator\\Above&#45;&gt;\\Roulette\\validation\\validator\\Validator</title>
<path fill="none" stroke="black" d="M368.772,-1578.38C358.27,-1574.17 346.829,-1567.93 339,-1559 279.126,-1490.75 338.397,-1429.99 275,-1365 271.75,-1361.67 267.961,-1358.84 263.89,-1356.44"/>
<polygon fill="none" stroke="black" points="265.137,-1353.15 254.625,-1351.83 262.022,-1359.42 265.137,-1353.15"/>
</g>
<!-- \\Roulette\\validation\\validator\\Below -->
<g id="node6" class="node"><title>\\Roulette\\validation\\validator\\Below</title>
<polygon fill="none" stroke="black" points="423,-1550 369,-1550 369,-1514 423,-1514 423,-1550"/>
<text text-anchor="middle" x="396" y="-1529.2" font-family="Courier,monospace" font-size="11.00">Below</text>
</g>
<!-- \\Roulette\\validation\\validator\\Below&#45;&gt;\\Roulette\\validation\\validator\\Validator -->
<g id="edge10" class="edge"><title>\\Roulette\\validation\\validator\\Below&#45;&gt;\\Roulette\\validation\\validator\\Validator</title>
<path fill="none" stroke="black" d="M368.956,-1523.83C358.608,-1519.55 347.233,-1513.4 339,-1505 291.121,-1456.13 325.394,-1411.27 275,-1365 271.668,-1361.94 267.881,-1359.3 263.862,-1357.02"/>
<polygon fill="none" stroke="black" points="265.302,-1353.83 254.779,-1352.6 262.235,-1360.12 265.302,-1353.83"/>
</g>
<!-- \\Roulette\\validation\\validator\\Minlength -->
<g id="node7" class="node"><title>\\Roulette\\validation\\validator\\Minlength</title>
<polygon fill="none" stroke="black" points="434.5,-1496 357.5,-1496 357.5,-1460 434.5,-1460 434.5,-1496"/>
<text text-anchor="middle" x="396" y="-1475.2" font-family="Courier,monospace" font-size="11.00">Minlength</text>
</g>
<!-- \\Roulette\\validation\\validator\\Minlength&#45;&gt;\\Roulette\\validation\\validator\\Validator -->
<g id="edge12" class="edge"><title>\\Roulette\\validation\\validator\\Minlength&#45;&gt;\\Roulette\\validation\\validator\\Validator</title>
<path fill="none" stroke="black" d="M357.325,-1462.95C350.876,-1459.53 344.493,-1455.54 339,-1451 302.259,-1420.67 313.293,-1393.35 275,-1365 271.565,-1362.46 267.809,-1360.19 263.9,-1358.16"/>
<polygon fill="none" stroke="black" points="265.13,-1354.88 254.582,-1353.88 262.205,-1361.23 265.13,-1354.88"/>
</g>
<!-- \\Roulette\\validation\\validator\\Custom -->
<g id="node8" class="node"><title>\\Roulette\\validation\\validator\\Custom</title>
<polygon fill="none" stroke="black" points="424.5,-1442 367.5,-1442 367.5,-1406 424.5,-1406 424.5,-1442"/>
<text text-anchor="middle" x="396" y="-1421.2" font-family="Courier,monospace" font-size="11.00">Custom</text>
</g>
<!-- \\Roulette\\validation\\validator\\Custom&#45;&gt;\\Roulette\\validation\\validator\\Validator -->
<g id="edge15" class="edge"><title>\\Roulette\\validation\\validator\\Custom&#45;&gt;\\Roulette\\validation\\validator\\Validator</title>
<path fill="none" stroke="black" d="M367.333,-1410.76C358.288,-1406.4 348.204,-1401.52 339,-1397 310.454,-1382.98 304.247,-1377.49 275,-1365 271.565,-1363.53 267.996,-1362.08 264.384,-1360.66"/>
<polygon fill="none" stroke="black" points="265.377,-1357.29 254.786,-1357 262.881,-1363.83 265.377,-1357.29"/>
</g>
<!-- \\Roulette\\Base -->
<g id="node28" class="node"><title>\\Roulette\\Base</title>
<polygon fill="none" stroke="black" points="78,-492 24,-492 24,-456 78,-456 78,-492"/>
<text text-anchor="middle" x="51" y="-471.2" font-family="Courier,monospace" font-size="11.00">Base</text>
</g>
<!-- \\Roulette\\validation\\validator\\Validator&#45;&gt;\\Roulette\\Base -->
<g id="edge16" class="edge"><title>\\Roulette\\validation\\validator\\Validator&#45;&gt;\\Roulette\\Base</title>
<path fill="none" stroke="black" d="M208.169,-1324.85C187.959,-1214.74 81.8283,-636.513 57.1366,-501.986"/>
<polygon fill="none" stroke="black" points="60.5609,-501.254 55.3131,-492.05 53.6759,-502.518 60.5609,-501.254"/>
</g>
<!-- \\Roulette\\validation\\validator\\Inclusion -->
<g id="node10" class="node"><title>\\Roulette\\validation\\validator\\Inclusion</title>
<polygon fill="none" stroke="black" points="434.5,-1388 357.5,-1388 357.5,-1352 434.5,-1352 434.5,-1388"/>
<text text-anchor="middle" x="396" y="-1367.2" font-family="Courier,monospace" font-size="11.00">Inclusion</text>
</g>
<!-- \\Roulette\\validation\\validator\\Inclusion&#45;&gt;\\Roulette\\validation\\validator\\Validator -->
<g id="edge18" class="edge"><title>\\Roulette\\validation\\validator\\Inclusion&#45;&gt;\\Roulette\\validation\\validator\\Validator</title>
<path fill="none" stroke="black" d="M357.393,-1364.41C330.55,-1360.41 294.13,-1354.99 264.647,-1350.61"/>
<polygon fill="none" stroke="black" points="264.941,-1347.11 254.535,-1349.1 263.911,-1354.04 264.941,-1347.11"/>
</g>
<!-- \\Roulette\\validation\\validator\\Boolean -->
<g id="node11" class="node"><title>\\Roulette\\validation\\validator\\Boolean</title>
<polygon fill="none" stroke="black" points="428,-1334 364,-1334 364,-1298 428,-1298 428,-1334"/>
<text text-anchor="middle" x="396" y="-1313.2" font-family="Courier,monospace" font-size="11.00">Boolean</text>
</g>
<!-- \\Roulette\\validation\\validator\\Boolean&#45;&gt;\\Roulette\\validation\\validator\\Validator -->
<g id="edge19" class="edge"><title>\\Roulette\\validation\\validator\\Boolean&#45;&gt;\\Roulette\\validation\\validator\\Validator</title>
<path fill="none" stroke="black" d="M363.799,-1320.64C336.636,-1324.68 296.73,-1330.62 264.864,-1335.36"/>
<polygon fill="none" stroke="black" points="264.202,-1331.92 254.826,-1336.85 265.232,-1338.84 264.202,-1331.92"/>
</g>
<!-- \\Roulette\\validation\\validator\\Maxlength -->
<g id="node12" class="node"><title>\\Roulette\\validation\\validator\\Maxlength</title>
<polygon fill="none" stroke="black" points="434.5,-1280 357.5,-1280 357.5,-1244 434.5,-1244 434.5,-1280"/>
<text text-anchor="middle" x="396" y="-1259.2" font-family="Courier,monospace" font-size="11.00">Maxlength</text>
</g>
<!-- \\Roulette\\validation\\validator\\Maxlength&#45;&gt;\\Roulette\\validation\\validator\\Validator -->
<g id="edge20" class="edge"><title>\\Roulette\\validation\\validator\\Maxlength&#45;&gt;\\Roulette\\validation\\validator\\Validator</title>
<path fill="none" stroke="black" d="M357.393,-1278.78C330.128,-1290.95 292.983,-1307.53 263.262,-1320.79"/>
<polygon fill="none" stroke="black" points="261.601,-1317.7 253.895,-1324.97 264.453,-1324.09 261.601,-1317.7"/>
</g>
<!-- \\Roulette\\validation\\validator\\Minvalue -->
<g id="node13" class="node"><title>\\Roulette\\validation\\validator\\Minvalue</title>
<polygon fill="none" stroke="black" points="431.5,-1226 360.5,-1226 360.5,-1190 431.5,-1190 431.5,-1226"/>
<text text-anchor="middle" x="396" y="-1205.2" font-family="Courier,monospace" font-size="11.00">Minvalue</text>
</g>
<!-- \\Roulette\\validation\\validator\\Minvalue&#45;&gt;\\Roulette\\validation\\validator\\Validator -->
<g id="edge21" class="edge"><title>\\Roulette\\validation\\validator\\Minvalue&#45;&gt;\\Roulette\\validation\\validator\\Validator</title>
<path fill="none" stroke="black" d="M360.463,-1222.9C353.179,-1226.52 345.681,-1230.62 339,-1235 301.464,-1259.59 263.04,-1294.35 238.768,-1317.73"/>
<polygon fill="none" stroke="black" points="236.131,-1315.41 231.404,-1324.9 241.012,-1320.43 236.131,-1315.41"/>
</g>
<!-- \\Roulette\\validation\\validator\\Maxvalue -->
<g id="node14" class="node"><title>\\Roulette\\validation\\validator\\Maxvalue</title>
<polygon fill="none" stroke="black" points="431.5,-1172 360.5,-1172 360.5,-1136 431.5,-1136 431.5,-1172"/>
<text text-anchor="middle" x="396" y="-1151.2" font-family="Courier,monospace" font-size="11.00">Maxvalue</text>
</g>
<!-- \\Roulette\\validation\\validator\\Maxvalue&#45;&gt;\\Roulette\\validation\\validator\\Validator -->
<g id="edge24" class="edge"><title>\\Roulette\\validation\\validator\\Maxvalue&#45;&gt;\\Roulette\\validation\\validator\\Validator</title>
<path fill="none" stroke="black" d="M360.333,-1167.62C352.902,-1171.36 345.376,-1175.84 339,-1181 290.642,-1220.14 249.789,-1281.4 228.753,-1316.3"/>
<polygon fill="none" stroke="black" points="225.69,-1314.6 223.597,-1324.99 231.71,-1318.17 225.69,-1314.6"/>
</g>
<!-- \\Roulette\\validation\\validator\\Exclusion -->
<g id="node15" class="node"><title>\\Roulette\\validation\\validator\\Exclusion</title>
<polygon fill="none" stroke="black" points="434.5,-1118 357.5,-1118 357.5,-1082 434.5,-1082 434.5,-1118"/>
<text text-anchor="middle" x="396" y="-1097.2" font-family="Courier,monospace" font-size="11.00">Exclusion</text>
</g>
<!-- \\Roulette\\validation\\validator\\Exclusion&#45;&gt;\\Roulette\\validation\\validator\\Validator -->
<g id="edge25" class="edge"><title>\\Roulette\\validation\\validator\\Exclusion&#45;&gt;\\Roulette\\validation\\validator\\Validator</title>
<path fill="none" stroke="black" d="M357.468,-1114.23C350.862,-1117.77 344.386,-1122.01 339,-1127 279.947,-1181.67 240.568,-1270.56 223.366,-1315.35"/>
<polygon fill="none" stroke="black" points="219.99,-1314.38 219.751,-1324.97 226.543,-1316.84 219.99,-1314.38"/>
</g>
<!-- \\Roulette\\validation\\validator\\Integer -->
<g id="node16" class="node"><title>\\Roulette\\validation\\validator\\Integer</title>
<polygon fill="none" stroke="black" points="428,-1064 364,-1064 364,-1028 428,-1028 428,-1064"/>
<text text-anchor="middle" x="396" y="-1043.2" font-family="Courier,monospace" font-size="11.00">Integer</text>
</g>
<!-- \\Roulette\\validation\\validator\\Integer&#45;&gt;\\Roulette\\validation\\validator\\Validator -->
<g id="edge26" class="edge"><title>\\Roulette\\validation\\validator\\Integer&#45;&gt;\\Roulette\\validation\\validator\\Validator</title>
<path fill="none" stroke="black" d="M363.791,-1056.47C354.965,-1060.57 345.896,-1066.01 339,-1073 268.912,-1144.09 233.148,-1261.58 219.809,-1315"/>
<polygon fill="none" stroke="black" points="216.388,-1314.26 217.437,-1324.8 223.192,-1315.91 216.388,-1314.26"/>
</g>
<!-- \\Roulette\\validation\\validator\\Float -->
<g id="node17" class="node"><title>\\Roulette\\validation\\validator\\Float</title>
<polygon fill="none" stroke="black" points="423,-1010 369,-1010 369,-974 423,-974 423,-1010"/>
<text text-anchor="middle" x="396" y="-989.2" font-family="Courier,monospace" font-size="11.00">Float</text>
</g>
<!-- \\Roulette\\validation\\validator\\Float&#45;&gt;\\Roulette\\validation\\validator\\Validator -->
<g id="edge27" class="edge"><title>\\Roulette\\validation\\validator\\Float&#45;&gt;\\Roulette\\validation\\validator\\Validator</title>
<path fill="none" stroke="black" d="M368.992,-999.817C358.526,-1004.07 347.054,-1010.28 339,-1019 257.74,-1107.01 227.033,-1253.43 217.345,-1314.69"/>
<polygon fill="none" stroke="black" points="213.855,-1314.36 215.821,-1324.77 220.776,-1315.41 213.855,-1314.36"/>
</g>
<!-- \\Roulette\\validation\\validator\\String -->
<g id="node18" class="node"><title>\\Roulette\\validation\\validator\\String</title>
<polygon fill="none" stroke="black" points="424.5,-956 367.5,-956 367.5,-920 424.5,-920 424.5,-956"/>
<text text-anchor="middle" x="396" y="-935.2" font-family="Courier,monospace" font-size="11.00">String</text>
</g>
<!-- \\Roulette\\validation\\validator\\String&#45;&gt;\\Roulette\\validation\\validator\\Validator -->
<g id="edge34" class="edge"><title>\\Roulette\\validation\\validator\\String&#45;&gt;\\Roulette\\validation\\validator\\Validator</title>
<path fill="none" stroke="black" d="M367.343,-946.215C357.247,-950.416 346.482,-956.488 339,-965 246.271,-1070.5 221.683,-1246.57 215.482,-1314.79"/>
<polygon fill="none" stroke="black" points="211.992,-1314.53 214.637,-1324.79 218.967,-1315.12 211.992,-1314.53"/>
</g>
<!-- \\Roulette\\validation\\Validation -->
<g id="node19" class="node"><title>\\Roulette\\validation\\Validation</title>
<polygon fill="none" stroke="black" points="438,-1892 354,-1892 354,-1856 438,-1856 438,-1892"/>
<text text-anchor="middle" x="396" y="-1871.2" font-family="Courier,monospace" font-size="11.00">Validation</text>
</g>
<!-- \\Roulette\\validation\\Validation&#45;&gt;\\Roulette\\Base -->
<g id="edge3" class="edge"><title>\\Roulette\\validation\\Validation&#45;&gt;\\Roulette\\Base</title>
<path fill="none" stroke="black" d="M353.602,-1884.61C298.709,-1895.92 202.652,-1905.64 150,-1852 52.0884,-1752.25 51.2321,-691.603 51.8619,-502.697"/>
<polygon fill="none" stroke="black" points="55.3627,-502.473 51.9006,-492.46 48.3628,-502.447 55.3627,-502.473"/>
</g>
<!-- \\Roulette\\association\\Value -->
<g id="node20" class="node"><title>\\Roulette\\association\\Value</title>
<polygon fill="none" stroke="black" points="239.5,-734 185.5,-734 185.5,-698 239.5,-698 239.5,-734"/>
<text text-anchor="middle" x="212.5" y="-713.2" font-family="Courier,monospace" font-size="11.00">Value</text>
</g>
<!-- \\Roulette\\association\\Value&#45;&gt;\\Roulette\\Base -->
<g id="edge4" class="edge"><title>\\Roulette\\association\\Value&#45;&gt;\\Roulette\\Base</title>
<path fill="none" stroke="black" d="M185.388,-709.236C173.395,-705.042 159.714,-698.579 150,-689 95.9187,-635.67 68.8026,-547.014 57.9363,-502.03"/>
<polygon fill="none" stroke="black" points="61.3005,-501.044 55.6307,-492.094 54.4817,-502.626 61.3005,-501.044"/>
</g>
<!-- \\Roulette\\association\\Association -->
<g id="node21" class="node"><title>\\Roulette\\association\\Association</title>
<polygon fill="none" stroke="black" points="258,-680 167,-680 167,-644 258,-644 258,-680"/>
<text text-anchor="middle" x="212.5" y="-659.2" font-family="Courier,monospace" font-size="11.00">Association</text>
</g>
<!-- \\Roulette\\association\\Association&#45;&gt;\\Roulette\\Base -->
<g id="edge32" class="edge"><title>\\Roulette\\association\\Association&#45;&gt;\\Roulette\\Base</title>
<path fill="none" stroke="black" d="M166.897,-644.029C160.86,-640.545 155.024,-636.539 150,-632 108.69,-594.678 78.5605,-535.928 63.297,-501.564"/>
<polygon fill="none" stroke="black" points="66.4028,-499.928 59.215,-492.145 59.9799,-502.712 66.4028,-499.928"/>
</g>
<!-- \\Roulette\\field\\Value -->
<g id="node22" class="node"><title>\\Roulette\\field\\Value</title>
<polygon fill="none" stroke="black" points="239.5,-868 185.5,-868 185.5,-832 239.5,-832 239.5,-868"/>
<text text-anchor="middle" x="212.5" y="-847.2" font-family="Courier,monospace" font-size="11.00">Value</text>
</g>
<!-- \\Roulette\\field\\Value&#45;&gt;\\Roulette\\Base -->
<g id="edge8" class="edge"><title>\\Roulette\\field\\Value&#45;&gt;\\Roulette\\Base</title>
<path fill="none" stroke="black" d="M185.332,-844.078C173.031,-840.045 159.102,-833.474 150,-823 67.0754,-727.576 53.9486,-567.018 52.1402,-502.301"/>
<polygon fill="none" stroke="black" points="55.6346,-501.988 51.9287,-492.062 48.6361,-502.132 55.6346,-501.988"/>
</g>
<!-- \\Roulette\\field\\Field -->
<g id="node23" class="node"><title>\\Roulette\\field\\Field</title>
<polygon fill="none" stroke="black" points="239.5,-814 185.5,-814 185.5,-778 239.5,-778 239.5,-814"/>
<text text-anchor="middle" x="212.5" y="-793.2" font-family="Courier,monospace" font-size="11.00">Field</text>
</g>
<!-- \\Roulette\\field\\Field&#45;&gt;\\Roulette\\Base -->
<g id="edge29" class="edge"><title>\\Roulette\\field\\Field&#45;&gt;\\Roulette\\Base</title>
<path fill="none" stroke="black" d="M185.215,-788.43C173.036,-783.732 159.247,-776.535 150,-766 81.071,-687.47 60.2715,-558.695 54.287,-502.134"/>
<polygon fill="none" stroke="black" points="57.7653,-501.741 53.3056,-492.131 50.7988,-502.425 57.7653,-501.741"/>
</g>
<!-- \\Roulette\\tunnel\\Tunnel -->
<g id="node24" class="node"><title>\\Roulette\\tunnel\\Tunnel</title>
<polygon fill="none" stroke="black" points="254.5,-600 170.5,-600 170.5,-564 254.5,-564 254.5,-600"/>
<text text-anchor="start" x="178.5" y="-585.2" font-family="Courier,monospace" font-size="11.00">«abstract»</text>
<text text-anchor="start" x="192" y="-573.2" font-family="Courier,monospace" font-size="11.00">Tunnel</text>
</g>
<!-- \\Roulette\\tunnel\\Tunnel&#45;&gt;\\Roulette\\Base -->
<g id="edge11" class="edge"><title>\\Roulette\\tunnel\\Tunnel&#45;&gt;\\Roulette\\Base</title>
<path fill="none" stroke="black" d="M170.331,-565.825C163.374,-562.56 156.354,-558.915 150,-555 123.738,-538.819 96.9453,-516.167 78.0268,-498.93"/>
<polygon fill="none" stroke="black" points="80.3993,-496.357 70.6776,-492.145 75.6509,-501.5 80.3993,-496.357"/>
</g>
<!-- \\Roulette\\tunnel\\Definer -->
<g id="node25" class="node"><title>\\Roulette\\tunnel\\Definer</title>
<polygon fill="none" stroke="black" points="254.5,-546 170.5,-546 170.5,-510 254.5,-510 254.5,-546"/>
<text text-anchor="start" x="178.5" y="-531.2" font-family="Courier,monospace" font-size="11.00">«abstract»</text>
<text text-anchor="start" x="188.5" y="-519.2" font-family="Courier,monospace" font-size="11.00">Definer</text>
</g>
<!-- \\Roulette\\tunnel\\Definer&#45;&gt;\\Roulette\\Base -->
<g id="edge33" class="edge"><title>\\Roulette\\tunnel\\Definer&#45;&gt;\\Roulette\\Base</title>
<path fill="none" stroke="black" d="M170.425,-514.094C144.952,-505.469 112.532,-494.494 88.056,-486.207"/>
<polygon fill="none" stroke="black" points="89.0247,-482.84 78.4304,-482.948 86.7799,-489.47 89.0247,-482.84"/>
</g>
<!-- \\Roulette\\util\\Configurable -->
<g id="node26" class="node"><title>\\Roulette\\util\\Configurable</title>
<polygon fill="none" stroke="black" points="445,-495 347,-495 347,-459 445,-459 445,-495"/>
<text text-anchor="middle" x="396" y="-474.2" font-family="Courier,monospace" font-size="11.00">Configurable</text>
</g>
<!-- \\Roulette\\util\\Observable -->
<g id="node27" class="node"><title>\\Roulette\\util\\Observable</title>
<polygon fill="none" stroke="black" points="438,-441 354,-441 354,-405 438,-405 438,-441"/>
<text text-anchor="middle" x="396" y="-420.2" font-family="Courier,monospace" font-size="11.00">Observable</text>
</g>
<!-- \\Roulette\\Template -->
<g id="node29" class="node"><title>\\Roulette\\Template</title>
<polygon fill="none" stroke="black" points="248,-492 177,-492 177,-456 248,-456 248,-492"/>
<text text-anchor="middle" x="212.5" y="-471.2" font-family="Courier,monospace" font-size="11.00">Template</text>
</g>
<!-- \\Roulette\\Template&#45;&gt;\\Roulette\\Base -->
<g id="edge5" class="edge"><title>\\Roulette\\Template&#45;&gt;\\Roulette\\Base</title>
<path fill="none" stroke="black" d="M176.891,-474C150.684,-474 114.781,-474 88.1937,-474"/>
<polygon fill="none" stroke="black" points="88.1429,-470.5 78.1429,-474 88.1428,-477.5 88.1429,-470.5"/>
</g>
<!-- \\Roulette\\Collection -->
<g id="node30" class="node"><title>\\Roulette\\Collection</title>
<polygon fill="none" stroke="black" points="254.5,-438 170.5,-438 170.5,-402 254.5,-402 254.5,-438"/>
<text text-anchor="middle" x="212.5" y="-417.2" font-family="Courier,monospace" font-size="11.00">Collection</text>
</g>
<!-- \\Roulette\\Collection&#45;&gt;\\Roulette\\Base -->
<g id="edge13" class="edge"><title>\\Roulette\\Collection&#45;&gt;\\Roulette\\Base</title>
<path fill="none" stroke="black" d="M170.425,-433.906C144.952,-442.531 112.532,-453.506 88.056,-461.793"/>
<polygon fill="none" stroke="black" points="86.7799,-458.53 78.4304,-465.052 89.0247,-465.16 86.7799,-458.53"/>
</g>
<!-- \\Roulette\\Operation -->
<g id="node31" class="node"><title>\\Roulette\\Operation</title>
<polygon fill="none" stroke="black" points="251,-384 174,-384 174,-348 251,-348 251,-384"/>
<text text-anchor="middle" x="212.5" y="-363.2" font-family="Courier,monospace" font-size="11.00">Operation</text>
</g>
<!-- \\Roulette\\Operation&#45;&gt;\\Roulette\\Base -->
<g id="edge14" class="edge"><title>\\Roulette\\Operation&#45;&gt;\\Roulette\\Base</title>
<path fill="none" stroke="black" d="M173.909,-380.526C165.807,-384.195 157.446,-388.412 150,-393 123.738,-409.181 96.9453,-431.833 78.0268,-449.07"/>
<polygon fill="none" stroke="black" points="75.6509,-446.5 70.6776,-455.855 80.3993,-451.643 75.6509,-446.5"/>
</g>
<!-- \\Roulette\\ModelCache -->
<g id="node32" class="node"><title>\\Roulette\\ModelCache</title>
<polygon fill="none" stroke="black" points="254.5,-330 170.5,-330 170.5,-294 254.5,-294 254.5,-330"/>
<text text-anchor="middle" x="212.5" y="-309.2" font-family="Courier,monospace" font-size="11.00">ModelCache</text>
</g>
<!-- \\Roulette\\ModelCache&#45;&gt;\\Roulette\\Base -->
<g id="edge17" class="edge"><title>\\Roulette\\ModelCache&#45;&gt;\\Roulette\\Base</title>
<path fill="none" stroke="black" d="M170.38,-326.404C163.195,-329.912 156.083,-334.098 150,-339 112.558,-369.172 82.4611,-416.992 65.931,-446.878"/>
<polygon fill="none" stroke="black" points="62.7271,-445.444 61.0486,-455.905 68.8843,-448.774 62.7271,-445.444"/>
</g>
<!-- \\Roulette\\FrameworkChecker -->
<g id="node33" class="node"><title>\\Roulette\\FrameworkChecker</title>
<polygon fill="none" stroke="black" points="275,-276 150,-276 150,-240 275,-240 275,-276"/>
<text text-anchor="middle" x="212.5" y="-255.2" font-family="Courier,monospace" font-size="11.00">FrameworkChecker</text>
</g>
<!-- \\Roulette\\FrameworkChecker&#45;&gt;\\Roulette\\Base -->
<g id="edge22" class="edge"><title>\\Roulette\\FrameworkChecker&#45;&gt;\\Roulette\\Base</title>
<path fill="none" stroke="black" d="M161.914,-276.037C157.629,-278.674 153.573,-281.651 150,-285 101.378,-330.576 72.6324,-405.707 59.8843,-446.153"/>
<polygon fill="none" stroke="black" points="56.4858,-445.299 56.9163,-455.885 63.1814,-447.341 56.4858,-445.299"/>
</g>
<!-- \\Roulette\\Iterator -->
<g id="node34" class="node"><title>\\Roulette\\Iterator</title>
<polygon fill="none" stroke="black" points="248,-222 177,-222 177,-186 248,-186 248,-222"/>
<text text-anchor="middle" x="212.5" y="-201.2" font-family="Courier,monospace" font-size="11.00">Iterator</text>
</g>
<!-- \\Roulette\\Iterator&#45;&gt;\\Roulette\\Base -->
<g id="edge23" class="edge"><title>\\Roulette\\Iterator&#45;&gt;\\Roulette\\Base</title>
<path fill="none" stroke="black" d="M176.996,-213.699C167.295,-217.77 157.389,-223.384 150,-231 89.9498,-292.901 65.0946,-396.392 56.24,-445.922"/>
<polygon fill="none" stroke="black" points="52.7667,-445.47 54.5417,-455.915 59.6677,-446.643 52.7667,-445.47"/>
</g>
<!-- \\Roulette\\Model -->
<g id="node35" class="node"><title>\\Roulette\\Model</title>
<polygon fill="none" stroke="black" points="239.5,-168 185.5,-168 185.5,-132 239.5,-132 239.5,-168"/>
<text text-anchor="middle" x="212.5" y="-147.2" font-family="Courier,monospace" font-size="11.00">Model</text>
</g>
<!-- \\Roulette\\Model&#45;&gt;\\Roulette\\Base -->
<g id="edge28" class="edge"><title>\\Roulette\\Model&#45;&gt;\\Roulette\\Base</title>
<path fill="none" stroke="black" d="M185.224,-156.204C173.046,-160.288 159.257,-166.82 150,-177 78.4504,-255.689 59.0187,-387.838 53.8378,-445.57"/>
<polygon fill="none" stroke="black" points="50.3304,-445.518 53.0036,-455.77 57.3071,-446.089 50.3304,-445.518"/>
</g>
<!-- \\Roulette\\Proxy -->
<g id="node36" class="node"><title>\\Roulette\\Proxy</title>
<polygon fill="none" stroke="black" points="239.5,-114 185.5,-114 185.5,-78 239.5,-78 239.5,-114"/>
<text text-anchor="middle" x="212.5" y="-93.2" font-family="Courier,monospace" font-size="11.00">Proxy</text>
</g>
<!-- \\Roulette\\Proxy&#45;&gt;\\Roulette\\Base -->
<g id="edge30" class="edge"><title>\\Roulette\\Proxy&#45;&gt;\\Roulette\\Base</title>
<path fill="none" stroke="black" d="M185.326,-101.917C173.023,-105.948 159.094,-112.519 150,-123 66.7061,-218.992 53.7895,-380.458 52.0888,-445.54"/>
<polygon fill="none" stroke="black" points="48.5839,-445.772 51.8948,-455.836 55.5827,-445.904 48.5839,-445.772"/>
</g>
<!-- \\Roulette\\Helper -->
<g id="node37" class="node"><title>\\Roulette\\Helper</title>
<polygon fill="none" stroke="black" points="241,-60 184,-60 184,-24 241,-24 241,-60"/>
<text text-anchor="middle" x="212.5" y="-39.2" font-family="Courier,monospace" font-size="11.00">Helper</text>
</g>
<!-- \\Roulette\\Helper&#45;&gt;\\Roulette\\Base -->
<g id="edge31" class="edge"><title>\\Roulette\\Helper&#45;&gt;\\Roulette\\Base</title>
<path fill="none" stroke="black" d="M183.918,-48.1939C171.896,-52.2273 158.611,-58.7199 150,-69 101.098,-127.382 66.3456,-363.682 55.5463,-445.753"/>
<polygon fill="none" stroke="black" points="52.0528,-445.477 54.2375,-455.845 58.9947,-446.378 52.0528,-445.477"/>
</g>
</g>
</svg>
